<svg width="200" height="200" viewBox="0 0 200 200" fill="none" xmlns="http://www.w3.org/2000/svg">
  <path clip-rule="evenodd"
    d="M46.7547 106.597L90.1451 18.7789H142.06L97.7243 91.7321C97.2382 92.5318 97.4864 93.5709 98.2862 94.0568C98.5678 94.228 98.8794 94.3071 99.1867 94.3031L151.878 97.314L64.1167 177.899L81.0097 108.692C81.2316 107.783 80.6798 106.867 79.7705 106.645C79.6261 106.61 79.4814 106.594 79.3394 106.597L46.7547 106.597ZM200 100C200 72.3855 188.807 47.3852 170.711 29.2891C152.615 11.1931 127.614 0 100 0C72.3855 0 47.3852 11.1931 29.2891 29.2891C11.1931 47.3852 0 72.3856 0 100C0 127.615 11.1931 152.615 29.2891 170.711C47.3852 188.807 72.3856 200 100 200C127.615 200 152.615 188.807 170.711 170.711C188.807 152.615 200 127.614 200 100Z"
    fill="#BF172B" />
</svg>
